<svg xmlns="http://www.w3.org/2000/svg" xmlns:xlink="http://www.w3.org/1999/xlink" width="500" zoomAndPan="magnify" viewBox="0 0 375 299.999988" height="400" preserveAspectRatio="xMidYMid meet" version="1.0"><defs><clipPath id="ec3ba2a9c3"><path d="M 5 0 L 368 0 L 368 299.996094 L 5 299.996094 Z M 5 0 " clip-rule="nonzero"/></clipPath></defs><g clip-path="url(#ec3ba2a9c3)"><path fill="#042a41" d="M 20.128906 -0.0273438 C 21.953125 12.109375 23.648438 18.65625 23.8125 25.238281 C 25.148438 77.625 48.464844 122.738281 80.363281 164.175781 C 90.261719 177.03125 105.539062 187.984375 120.859375 195.40625 C 171.195312 219.785156 225.085938 228.789062 284.976562 220.96875 C 275.410156 208.851562 261.6875 208.367188 251.085938 203.210938 C 241.484375 198.53125 231.28125 194.722656 222.339844 189.175781 C 219.328125 187.308594 217.34375 180.640625 218.574219 177.332031 C 219.800781 174.039062 225.742188 170.03125 229.464844 170.152344 C 239.222656 170.484375 249.289062 171.828125 258.535156 174.671875 C 288.617188 183.929688 318.480469 193.800781 348.238281 203.902344 C 369.765625 211.210938 372.914062 219.46875 360.574219 236.433594 C 340.796875 263.636719 314.566406 284.222656 282.210938 297.753906 C 276.945312 299.957031 270.074219 298.921875 261.230469 299.578125 C 267.523438 272.148438 298.832031 270.394531 309.949219 248.417969 C 298.78125 249.148438 289.363281 249.59375 279.984375 250.394531 C 225.488281 255.035156 173.214844 247.164062 123.125 226.910156 C 89.242188 213.214844 63.003906 191.773438 45.734375 161.472656 C 27.21875 128.988281 11.175781 95.464844 6.597656 58.671875 C 4.339844 40.503906 2.023438 21.261719 20.128906 -0.0273438 Z M 20.128906 -0.0273438 " fill-opacity="1" fill-rule="nonzero"/></g></svg>